<svg width="491" height="612" viewBox="0 0 491 612" fill="none" xmlns="http://www.w3.org/2000/svg">
<path d="M423.984 260.915C583.1 278.079 277.63 612 169.689 612C61.7475 612 108.655 368.494 19.2875 342.327C-70.0796 316.159 182.87 -74.8674 328.077 21.0444C412.257 76.6467 264.868 243.752 423.984 260.915Z" fill="#F9FAFC"/>
<path d="M415.185 269.22C459.984 285.979 481.923 313.774 488.115 346.143C494.323 378.596 484.74 415.836 466.054 451.459C447.378 487.065 419.669 520.939 389.815 546.61C359.936 572.302 328.03 589.675 300.979 592.475C268.975 595.787 234.79 583.236 201.576 560.365C168.374 537.503 136.24 504.393 108.377 466.776C80.5177 429.163 56.9549 387.079 40.8792 346.299C24.7978 305.505 16.2374 266.088 18.3042 233.787C21.8097 179 50.1851 97.6573 98.8111 47.0506C123.106 21.7658 152.394 4.21638 186.105 1.39852C219.806 -1.41855 258.103 10.473 300.457 44.418C342.879 78.4173 359.8 105.087 364.343 126.931C368.879 148.747 361.123 165.974 353.543 181.313C353.142 182.124 352.741 182.931 352.343 183.733C348.989 190.483 345.787 196.929 343.948 203.205C341.879 210.268 341.503 217.217 344.575 224.286C347.634 231.324 354.053 238.342 365.276 245.691C376.503 253.043 392.615 260.778 415.185 269.22Z" stroke="#593CCA" stroke-width="2"/>
<g filter="url(#filter0_d)">
<rect x="54.5" y="128.5" width="355" height="71" rx="3.5" fill="white" stroke="#F4F4F4"/>
<path d="M93.5 166H92.71L92.43 165.73C93.41 164.59 94 163.11 94 161.5C94 157.91 91.09 155 87.5 155C83.91 155 81 157.91 81 161.5C81 165.09 83.91 168 87.5 168C89.11 168 90.59 167.41 91.73 166.43L92 166.71V167.5L97 172.49L98.49 171L93.5 166V166ZM87.5 166C85.01 166 83 163.99 83 161.5C83 159.01 85.01 157 87.5 157C89.99 157 92 159.01 92 161.5C92 163.99 89.99 166 87.5 166Z" fill="#929398"/>
<path d="M123.722 167.759L127.378 157.203H129.224L124.478 170H122.983L118.246 157.203H120.083L123.722 167.759ZM134.251 170.176C132.962 170.176 131.913 169.754 131.104 168.91C130.296 168.061 129.892 166.927 129.892 165.509V165.21C129.892 164.267 130.07 163.426 130.428 162.688C130.791 161.943 131.295 161.363 131.939 160.947C132.59 160.525 133.293 160.314 134.049 160.314C135.285 160.314 136.246 160.722 136.932 161.536C137.617 162.351 137.96 163.517 137.96 165.034V165.711H131.518C131.541 166.648 131.813 167.407 132.335 167.987C132.862 168.562 133.53 168.849 134.339 168.849C134.913 168.849 135.399 168.731 135.798 168.497C136.196 168.263 136.545 167.952 136.844 167.565L137.837 168.339C137.04 169.563 135.845 170.176 134.251 170.176ZM134.049 161.65C133.393 161.65 132.842 161.891 132.396 162.371C131.951 162.846 131.676 163.514 131.57 164.375H136.334V164.252C136.287 163.426 136.064 162.787 135.666 162.336C135.268 161.879 134.729 161.65 134.049 161.65ZM141.388 160.49L141.44 161.686C142.167 160.771 143.116 160.314 144.288 160.314C146.298 160.314 147.312 161.448 147.329 163.716V170H145.703V163.707C145.697 163.021 145.539 162.515 145.229 162.187C144.924 161.858 144.446 161.694 143.796 161.694C143.269 161.694 142.806 161.835 142.407 162.116C142.009 162.397 141.698 162.767 141.476 163.224V170H139.85V160.49H141.388ZM151.987 158.188V160.49H153.763V161.747H151.987V167.645C151.987 168.025 152.066 168.312 152.225 168.506C152.383 168.693 152.652 168.787 153.033 168.787C153.221 168.787 153.479 168.752 153.807 168.682V170C153.379 170.117 152.963 170.176 152.559 170.176C151.832 170.176 151.284 169.956 150.915 169.517C150.546 169.077 150.361 168.453 150.361 167.645V161.747H148.63V160.49H150.361V158.188H151.987ZM161.541 170C161.447 169.812 161.371 169.479 161.312 168.998C160.557 169.783 159.654 170.176 158.605 170.176C157.668 170.176 156.897 169.912 156.294 169.385C155.696 168.852 155.397 168.178 155.397 167.363C155.397 166.373 155.772 165.605 156.522 165.061C157.278 164.51 158.339 164.234 159.704 164.234H161.286V163.487C161.286 162.919 161.116 162.468 160.776 162.134C160.437 161.794 159.936 161.624 159.273 161.624C158.693 161.624 158.207 161.771 157.814 162.063C157.422 162.356 157.226 162.711 157.226 163.127H155.591C155.591 162.652 155.758 162.195 156.092 161.756C156.432 161.311 156.889 160.959 157.463 160.701C158.043 160.443 158.679 160.314 159.37 160.314C160.466 160.314 161.324 160.59 161.945 161.141C162.566 161.686 162.889 162.438 162.912 163.399V167.776C162.912 168.649 163.023 169.344 163.246 169.859V170H161.541ZM158.843 168.761C159.353 168.761 159.836 168.629 160.293 168.365C160.75 168.102 161.081 167.759 161.286 167.337V165.386H160.012C158.02 165.386 157.023 165.969 157.023 167.135C157.023 167.645 157.193 168.043 157.533 168.33C157.873 168.617 158.31 168.761 158.843 168.761ZM170.998 167.478C170.998 167.038 170.831 166.698 170.497 166.458C170.169 166.212 169.592 166.001 168.766 165.825C167.945 165.649 167.292 165.438 166.806 165.192C166.325 164.946 165.968 164.653 165.733 164.313C165.505 163.974 165.391 163.569 165.391 163.101C165.391 162.321 165.719 161.662 166.375 161.123C167.037 160.584 167.881 160.314 168.906 160.314C169.984 160.314 170.857 160.593 171.525 161.149C172.199 161.706 172.536 162.418 172.536 163.285H170.901C170.901 162.84 170.711 162.456 170.33 162.134C169.955 161.812 169.48 161.65 168.906 161.65C168.314 161.65 167.852 161.779 167.518 162.037C167.184 162.295 167.017 162.632 167.017 163.048C167.017 163.44 167.172 163.736 167.482 163.936C167.793 164.135 168.353 164.325 169.161 164.507C169.976 164.688 170.635 164.905 171.139 165.157C171.643 165.409 172.015 165.714 172.255 166.071C172.501 166.423 172.624 166.854 172.624 167.363C172.624 168.213 172.284 168.896 171.604 169.411C170.925 169.921 170.043 170.176 168.959 170.176C168.197 170.176 167.523 170.041 166.938 169.771C166.352 169.502 165.892 169.127 165.558 168.646C165.229 168.16 165.065 167.636 165.065 167.073H166.691C166.721 167.618 166.938 168.052 167.342 168.374C167.752 168.69 168.291 168.849 168.959 168.849C169.574 168.849 170.066 168.726 170.436 168.479C170.811 168.228 170.998 167.894 170.998 167.478ZM183.153 170.176C181.864 170.176 180.815 169.754 180.007 168.91C179.198 168.061 178.794 166.927 178.794 165.509V165.21C178.794 164.267 178.973 163.426 179.33 162.688C179.693 161.943 180.197 161.363 180.842 160.947C181.492 160.525 182.195 160.314 182.951 160.314C184.188 160.314 185.148 160.722 185.834 161.536C186.52 162.351 186.862 163.517 186.862 165.034V165.711H180.42C180.443 166.648 180.716 167.407 181.237 167.987C181.765 168.562 182.433 168.849 183.241 168.849C183.815 168.849 184.302 168.731 184.7 168.497C185.099 168.263 185.447 167.952 185.746 167.565L186.739 168.339C185.942 169.563 184.747 170.176 183.153 170.176ZM182.951 161.65C182.295 161.65 181.744 161.891 181.299 162.371C180.854 162.846 180.578 163.514 180.473 164.375H185.236V164.252C185.189 163.426 184.967 162.787 184.568 162.336C184.17 161.879 183.631 161.65 182.951 161.65ZM190.29 160.49L190.343 161.686C191.069 160.771 192.019 160.314 193.19 160.314C195.2 160.314 196.214 161.448 196.231 163.716V170H194.605V163.707C194.6 163.021 194.441 162.515 194.131 162.187C193.826 161.858 193.349 161.694 192.698 161.694C192.171 161.694 191.708 161.835 191.31 162.116C190.911 162.397 190.601 162.767 190.378 163.224V170H188.752V160.49H190.29ZM211.182 165.351C211.182 166.798 210.851 167.964 210.188 168.849C209.526 169.733 208.63 170.176 207.499 170.176C206.345 170.176 205.437 169.81 204.774 169.077V173.656H203.148V160.49H204.634L204.713 161.545C205.375 160.725 206.295 160.314 207.473 160.314C208.615 160.314 209.518 160.745 210.18 161.606C210.848 162.468 211.182 163.666 211.182 165.201V165.351ZM209.556 165.166C209.556 164.094 209.327 163.247 208.87 162.626C208.413 162.005 207.786 161.694 206.989 161.694C206.005 161.694 205.267 162.131 204.774 163.004V167.548C205.261 168.415 206.005 168.849 207.007 168.849C207.786 168.849 208.404 168.541 208.861 167.926C209.324 167.305 209.556 166.385 209.556 165.166ZM217.853 161.949C217.606 161.908 217.34 161.888 217.053 161.888C215.986 161.888 215.263 162.342 214.882 163.25V170H213.256V160.49H214.838L214.864 161.589C215.397 160.739 216.153 160.314 217.132 160.314C217.448 160.314 217.688 160.355 217.853 160.438V161.949ZM218.749 165.157C218.749 164.226 218.931 163.388 219.294 162.644C219.663 161.899 220.173 161.325 220.823 160.921C221.479 160.517 222.227 160.314 223.064 160.314C224.359 160.314 225.405 160.763 226.202 161.659C227.005 162.556 227.406 163.748 227.406 165.236V165.351C227.406 166.276 227.228 167.108 226.87 167.847C226.519 168.579 226.012 169.15 225.35 169.561C224.693 169.971 223.938 170.176 223.082 170.176C221.793 170.176 220.747 169.728 219.944 168.831C219.147 167.935 218.749 166.748 218.749 165.271V165.157ZM220.384 165.351C220.384 166.405 220.627 167.252 221.113 167.891C221.605 168.529 222.262 168.849 223.082 168.849C223.908 168.849 224.564 168.526 225.051 167.882C225.537 167.231 225.78 166.323 225.78 165.157C225.78 164.114 225.531 163.271 225.033 162.626C224.541 161.976 223.885 161.65 223.064 161.65C222.262 161.65 221.614 161.97 221.122 162.608C220.63 163.247 220.384 164.161 220.384 165.351ZM233.26 168.849C233.84 168.849 234.347 168.673 234.78 168.321C235.214 167.97 235.454 167.53 235.501 167.003H237.039C237.01 167.548 236.822 168.066 236.477 168.559C236.131 169.051 235.668 169.443 235.088 169.736C234.514 170.029 233.904 170.176 233.26 170.176C231.965 170.176 230.934 169.745 230.166 168.884C229.404 168.017 229.023 166.833 229.023 165.333V165.061C229.023 164.135 229.193 163.312 229.533 162.591C229.873 161.87 230.359 161.311 230.992 160.912C231.631 160.514 232.384 160.314 233.251 160.314C234.317 160.314 235.202 160.634 235.905 161.272C236.614 161.911 236.992 162.74 237.039 163.76H235.501C235.454 163.145 235.22 162.641 234.798 162.248C234.382 161.85 233.866 161.65 233.251 161.65C232.425 161.65 231.783 161.949 231.326 162.547C230.875 163.139 230.649 163.997 230.649 165.122V165.43C230.649 166.525 230.875 167.369 231.326 167.961C231.777 168.553 232.422 168.849 233.26 168.849ZM242.813 170.176C241.524 170.176 240.476 169.754 239.667 168.91C238.858 168.061 238.454 166.927 238.454 165.509V165.21C238.454 164.267 238.633 163.426 238.99 162.688C239.354 161.943 239.857 161.363 240.502 160.947C241.152 160.525 241.855 160.314 242.611 160.314C243.848 160.314 244.809 160.722 245.494 161.536C246.18 162.351 246.522 163.517 246.522 165.034V165.711H240.08C240.104 166.648 240.376 167.407 240.897 167.987C241.425 168.562 242.093 168.849 242.901 168.849C243.476 168.849 243.962 168.731 244.36 168.497C244.759 168.263 245.107 167.952 245.406 167.565L246.399 168.339C245.603 169.563 244.407 170.176 242.813 170.176ZM242.611 161.65C241.955 161.65 241.404 161.891 240.959 162.371C240.514 162.846 240.238 163.514 240.133 164.375H244.896V164.252C244.85 163.426 244.627 162.787 244.229 162.336C243.83 161.879 243.291 161.65 242.611 161.65ZM253.949 167.478C253.949 167.038 253.782 166.698 253.448 166.458C253.12 166.212 252.543 166.001 251.717 165.825C250.896 165.649 250.243 165.438 249.757 165.192C249.276 164.946 248.919 164.653 248.685 164.313C248.456 163.974 248.342 163.569 248.342 163.101C248.342 162.321 248.67 161.662 249.326 161.123C249.988 160.584 250.832 160.314 251.857 160.314C252.936 160.314 253.809 160.593 254.477 161.149C255.15 161.706 255.487 162.418 255.487 163.285H253.853C253.853 162.84 253.662 162.456 253.281 162.134C252.906 161.812 252.432 161.65 251.857 161.65C251.266 161.65 250.803 161.779 250.469 162.037C250.135 162.295 249.968 162.632 249.968 163.048C249.968 163.44 250.123 163.736 250.434 163.936C250.744 164.135 251.304 164.325 252.112 164.507C252.927 164.688 253.586 164.905 254.09 165.157C254.594 165.409 254.966 165.714 255.206 166.071C255.452 166.423 255.575 166.854 255.575 167.363C255.575 168.213 255.235 168.896 254.556 169.411C253.876 169.921 252.994 170.176 251.91 170.176C251.148 170.176 250.475 170.041 249.889 169.771C249.303 169.502 248.843 169.127 248.509 168.646C248.181 168.16 248.017 167.636 248.017 167.073H249.643C249.672 167.618 249.889 168.052 250.293 168.374C250.703 168.69 251.242 168.849 251.91 168.849C252.525 168.849 253.018 168.726 253.387 168.479C253.762 168.228 253.949 167.894 253.949 167.478ZM257.263 165.157C257.263 164.226 257.444 163.388 257.808 162.644C258.177 161.899 258.687 161.325 259.337 160.921C259.993 160.517 260.74 160.314 261.578 160.314C262.873 160.314 263.919 160.763 264.716 161.659C265.519 162.556 265.92 163.748 265.92 165.236V165.351C265.92 166.276 265.741 167.108 265.384 167.847C265.032 168.579 264.525 169.15 263.863 169.561C263.207 169.971 262.451 170.176 261.596 170.176C260.307 170.176 259.261 169.728 258.458 168.831C257.661 167.935 257.263 166.748 257.263 165.271V165.157ZM258.897 165.351C258.897 166.405 259.141 167.252 259.627 167.891C260.119 168.529 260.775 168.849 261.596 168.849C262.422 168.849 263.078 168.526 263.564 167.882C264.051 167.231 264.294 166.323 264.294 165.157C264.294 164.114 264.045 163.271 263.547 162.626C263.055 161.976 262.398 161.65 261.578 161.65C260.775 161.65 260.128 161.97 259.636 162.608C259.144 163.247 258.897 164.161 258.897 165.351Z" fill="#A1A1A3"/>
<g clip-path="url(#clip0)">
<rect x="55.5" y="216.5" width="355" height="287" rx="3.5" fill="#F5F5F5" stroke="#F4F4F4"/>
<rect x="71.5" y="232.5" width="322" height="71" rx="3.5" fill="white" stroke="#F4F4F4"/>
<rect x="71.5" y="320.5" width="322" height="71" rx="3.5" fill="white" stroke="#F4F4F4"/>
<rect x="71.5" y="408.5" width="322" height="71" rx="3.5" fill="white" stroke="#F4F4F4"/>
<rect x="126" y="260" width="240" height="16" rx="2" fill="#47BFA4"/>
<rect x="126" y="348" width="179" height="16" rx="2" fill="#47BFA4"/>
<rect x="126" y="436" width="214" height="16" rx="2" fill="#47BFA4"/>
<path d="M108.41 267.58L99.41 258.58C99.05 258.22 98.55 258 98 258H91C89.9 258 89 258.9 89 260V267C89 267.55 89.22 268.05 89.59 268.42L98.59 277.42C98.95 277.78 99.45 278 100 278C100.55 278 101.05 277.78 101.41 277.41L108.41 270.41C108.78 270.05 109 269.55 109 269C109 268.45 108.77 267.94 108.41 267.58ZM92.5 263C91.67 263 91 262.33 91 261.5C91 260.67 91.67 260 92.5 260C93.33 260 94 260.67 94 261.5C94 262.33 93.33 263 92.5 263Z" fill="#949599"/>
<path d="M108.41 355.58L99.41 346.58C99.05 346.22 98.55 346 98 346H91C89.9 346 89 346.9 89 348V355C89 355.55 89.22 356.05 89.59 356.42L98.59 365.42C98.95 365.78 99.45 366 100 366C100.55 366 101.05 365.78 101.41 365.41L108.41 358.41C108.78 358.05 109 357.55 109 357C109 356.45 108.77 355.94 108.41 355.58ZM92.5 351C91.67 351 91 350.33 91 349.5C91 348.67 91.67 348 92.5 348C93.33 348 94 348.67 94 349.5C94 350.33 93.33 351 92.5 351Z" fill="#949599"/>
<path d="M108.41 443.58L99.41 434.58C99.05 434.22 98.55 434 98 434H91C89.9 434 89 434.9 89 436V443C89 443.55 89.22 444.05 89.59 444.42L98.59 453.42C98.95 453.78 99.45 454 100 454C100.55 454 101.05 453.78 101.41 453.41L108.41 446.41C108.78 446.05 109 445.55 109 445C109 444.45 108.77 443.94 108.41 443.58ZM92.5 439C91.67 439 91 438.33 91 437.5C91 436.67 91.67 436 92.5 436C93.33 436 94 436.67 94 437.5C94 438.33 93.33 439 92.5 439Z" fill="#949599"/>
</g>
</g>
<defs>
<filter id="filter0_d" x="22" y="100" width="420" height="440" filterUnits="userSpaceOnUse" color-interpolation-filters="sRGB">
<feFlood flood-opacity="0" result="BackgroundImageFix"/>
<feColorMatrix in="SourceAlpha" type="matrix" values="0 0 0 0 0 0 0 0 0 0 0 0 0 0 0 0 0 0 127 0"/>
<feOffset dy="4"/>
<feGaussianBlur stdDeviation="16"/>
<feColorMatrix type="matrix" values="0 0 0 0 0.372549 0 0 0 0 0.309804 0 0 0 0 0.780392 0 0 0 0.32 0"/>
<feBlend mode="normal" in2="BackgroundImageFix" result="effect1_dropShadow"/>
<feBlend mode="normal" in="SourceGraphic" in2="effect1_dropShadow" result="shape"/>
</filter>
<clipPath id="clip0">
<rect width="355" height="288" fill="white" transform="translate(55 216)"/>
</clipPath>
</defs>
</svg>
