<svg width="200" height="40" viewBox="0 0 200 40" fill="none" xmlns="http://www.w3.org/2000/svg">
<path d="M13.6006 5.30376C17.1526 5.30376 20.2566 6.00776 22.9126 7.41576C25.5686 8.82376 27.6166 10.8078 29.0566 13.3678C30.5286 15.8958 31.2646 18.8238 31.2646 22.1518C31.2646 25.4478 30.5286 28.3758 29.0566 30.9358C27.6166 33.4958 25.5526 35.4798 22.8646 36.8878C20.2086 38.2958 17.1206 38.9998 13.6006 38.9998H0.976562V5.30376H13.6006ZM13.0726 31.9918C16.1766 31.9918 18.5926 31.1278 20.3206 29.3998C22.0486 27.6718 22.9126 25.2558 22.9126 22.1518C22.9126 19.0478 22.0486 16.6318 20.3206 14.9038C18.5926 13.1758 16.1766 12.3118 13.0726 12.3118H9.18456V31.9918H13.0726Z" fill="white"/>
<path d="M41.8996 9.43176C40.4596 9.43176 39.2756 9.01576 38.3476 8.18376C37.4516 7.31976 37.0036 6.26376 37.0036 5.01576C37.0036 3.73576 37.4516 2.67976 38.3476 1.84776C39.2756 0.983758 40.4596 0.551758 41.8996 0.551758C43.3076 0.551758 44.4596 0.983758 45.3556 1.84776C46.2836 2.67976 46.7476 3.73576 46.7476 5.01576C46.7476 6.26376 46.2836 7.31976 45.3556 8.18376C44.4596 9.01576 43.3076 9.43176 41.8996 9.43176ZM45.9796 12.2158V38.9998H37.7716V12.2158H45.9796Z" fill="white"/>
<path d="M65.8958 31.3198L71.7038 12.2158H80.4878L70.9838 38.9998H60.8078L51.3038 12.2158H60.0878L65.8958 31.3198Z" fill="white"/>
<path d="M111.063 25.1278C111.063 25.8638 111.015 26.6478 110.919 27.4798H92.3427C92.4707 29.1758 92.9987 30.4718 93.9267 31.3678C94.8547 32.2638 96.0227 32.7118 97.4307 32.7118C99.4787 32.7118 100.903 31.8478 101.703 30.1198H110.439C109.991 31.8798 109.175 33.4638 107.991 34.8718C106.839 36.2798 105.383 37.3838 103.623 38.1838C101.863 38.9838 99.8947 39.3838 97.7187 39.3838C95.0947 39.3838 92.7587 38.8238 90.7107 37.7038C88.6627 36.5838 87.0627 34.9838 85.9107 32.9038C84.7587 30.8238 84.1827 28.3918 84.1827 25.6078C84.1827 22.8238 84.7427 20.3918 85.8627 18.3118C87.0147 16.2318 88.6147 14.6318 90.6627 13.5118C92.7107 12.3918 95.0627 11.8318 97.7187 11.8318C100.311 11.8318 102.615 12.3758 104.631 13.4638C106.647 14.5518 108.215 16.1038 109.335 18.1198C110.487 20.1358 111.063 22.4718 111.063 25.1278ZM102.663 23.3038C102.663 21.7678 102.183 20.5678 101.223 19.7038C100.263 18.8398 99.0627 18.4078 97.6227 18.4078C96.2147 18.4078 95.0307 18.8398 94.0707 19.7038C93.1427 20.5358 92.5667 21.7358 92.3427 23.3038H102.663Z" fill="white"/>
<path d="M133.633 11.9278C136.769 11.9278 139.265 12.9518 141.121 14.9998C143.009 17.0158 143.953 19.7998 143.953 23.3518V38.9998H135.793V24.4558C135.793 22.6638 135.329 21.2718 134.401 20.2798C133.473 19.2878 132.225 18.7918 130.657 18.7918C129.089 18.7918 127.841 19.2878 126.913 20.2798C125.985 21.2718 125.521 22.6638 125.521 24.4558V38.9998H117.313V12.2158H125.521V15.7678C126.353 14.5838 127.473 13.6558 128.881 12.9838C130.289 12.2798 131.873 11.9278 133.633 11.9278Z" fill="white"/>
<path d="M166.505 32.0398V38.9998H162.329C159.353 38.9998 157.033 38.2798 155.369 36.8398C153.705 35.3678 152.873 32.9838 152.873 29.6878V19.0318H149.609V12.2158H152.873V5.68776H161.081V12.2158H166.457V19.0318H161.081V29.7838C161.081 30.5838 161.273 31.1598 161.657 31.5118C162.041 31.8638 162.681 32.0398 163.577 32.0398H166.505Z" fill="white"/>
<path d="M171.365 25.5598C171.365 22.8078 171.877 20.3918 172.901 18.3118C173.957 16.2318 175.381 14.6318 177.173 13.5118C178.965 12.3918 180.965 11.8318 183.173 11.8318C185.061 11.8318 186.709 12.2158 188.117 12.9838C189.557 13.7518 190.661 14.7598 191.429 16.0078V12.2158H199.637V38.9998H191.429V35.2078C190.629 36.4558 189.509 37.4638 188.069 38.2318C186.661 38.9998 185.013 39.3838 183.125 39.3838C180.949 39.3838 178.965 38.8238 177.173 37.7038C175.381 36.5518 173.957 34.9358 172.901 32.8558C171.877 30.7438 171.365 28.3118 171.365 25.5598ZM191.429 25.6078C191.429 23.5598 190.853 21.9438 189.701 20.7598C188.581 19.5758 187.205 18.9838 185.573 18.9838C183.941 18.9838 182.549 19.5758 181.397 20.7598C180.277 21.9118 179.717 23.5118 179.717 25.5598C179.717 27.6078 180.277 29.2398 181.397 30.4558C182.549 31.6398 183.941 32.2318 185.573 32.2318C187.205 32.2318 188.581 31.6398 189.701 30.4558C190.853 29.2718 191.429 27.6558 191.429 25.6078Z" fill="white"/>
</svg>
