<svg width="80" height="80" viewBox="0 0 80 80" fill="none" xmlns="http://www.w3.org/2000/svg">
<path d="M0 80H80L0 0V80Z" fill="#3C2D89"/>
<path d="M6.66807 43.2746L18.7331 31.2096L22.6774 35.154C23.9867 36.4632 24.6993 37.7172 24.8153 38.916C24.9368 40.1203 24.4673 41.2528 23.4066 42.3134C22.8431 42.8769 22.183 43.2166 21.4262 43.3326C20.6749 43.4431 19.9042 43.3409 19.1143 43.0261C19.5838 43.8602 19.7495 44.722 19.6114 45.6114C19.4844 46.5008 19.0673 47.2991 18.3602 48.0062C17.2774 49.0889 16.0759 49.5889 14.7556 49.506C13.4353 49.4232 12.1343 48.7409 10.8527 47.4593L6.66807 43.2746ZM13.9021 39.2226L9.56003 43.5647L12.1868 46.1915C12.9271 46.9317 13.7005 47.3239 14.507 47.3681C15.3246 47.4123 16.0704 47.0974 16.7443 46.4235C18.1972 44.9706 18.1337 43.4542 16.5538 41.8742L13.9021 39.2226ZM15.1782 37.9465L17.5813 40.3495C18.2773 41.0456 19.0065 41.4268 19.7689 41.4931C20.5368 41.5649 21.219 41.3025 21.8156 40.7059C22.4785 40.0429 22.7658 39.369 22.6774 38.684C22.5945 37.9934 22.1581 37.2532 21.3682 36.4632L19.0148 34.1099L15.1782 37.9465ZM20.5561 57.4941C19.3407 56.2788 18.7497 54.8922 18.7828 53.3343C18.8215 51.771 19.5092 50.3209 20.8461 48.984L21.1279 48.7022C22.0173 47.8128 22.9785 47.1886 24.0115 46.8295C25.0556 46.4704 26.0776 46.3986 27.0775 46.6141C28.0884 46.8295 28.9502 47.2935 29.6629 48.0062C30.8285 49.1718 31.3505 50.4617 31.229 51.8759C31.1074 53.2901 30.3313 54.7126 28.9005 56.1434L28.2624 56.7815L22.1885 50.7075C21.3267 51.6135 20.8682 52.5858 20.813 53.6244C20.7688 54.6629 21.1279 55.5634 21.8902 56.3257C22.4316 56.8671 23.0006 57.2151 23.5972 57.3698C24.1938 57.5245 24.8153 57.5604 25.4616 57.4775L25.6688 59.1431C23.7629 59.5464 22.0587 58.9967 20.5561 57.4941ZM28.4033 49.2657C27.7846 48.647 27.0388 48.3542 26.166 48.3874C25.2987 48.415 24.4093 48.7851 23.4978 49.4977L27.989 53.989L28.105 53.873C28.8397 53.0498 29.232 52.2378 29.2817 51.4368C29.3369 50.6302 29.0441 49.9065 28.4033 49.2657ZM39.2171 53.5498L37.046 55.7208L38.7199 57.3947L37.5349 58.5796L35.8611 56.9058L30.3009 62.466C29.9418 62.825 29.7457 63.1703 29.7126 63.5018C29.6849 63.8277 29.8507 64.1702 30.2098 64.5293C30.3865 64.7061 30.6627 64.916 31.0384 65.159L29.7954 66.402C29.2817 66.1092 28.8342 65.7722 28.453 65.3911C27.768 64.7061 27.4587 63.9824 27.525 63.22C27.5912 62.4577 28.0056 61.6953 28.7679 60.933L34.3281 55.3728L32.6957 53.7404L33.8806 52.5554L35.5131 54.1878L37.6841 52.0168L39.2171 53.5498ZM37.0875 73.694C37.1759 73.4289 37.4189 73.0422 37.8167 72.5339C36.3638 72.5616 35.1429 72.081 34.1541 71.0921C33.2702 70.2082 32.7924 69.2332 32.7205 68.167C32.6598 67.1008 33.0133 66.1838 33.7812 65.4159C34.7148 64.4823 35.792 64.1122 37.0129 64.3055C38.2448 64.4989 39.5043 65.2391 40.7915 66.5263L42.2831 68.0179L42.9874 67.3135C43.5232 66.7777 43.7884 66.1921 43.7829 65.5568C43.7829 64.916 43.4708 64.2834 42.8465 63.6592C42.2996 63.1123 41.703 62.7919 41.0567 62.698C40.4103 62.6041 39.891 62.7532 39.4988 63.1454L37.9575 61.6042C38.405 61.1567 38.9933 60.8833 39.7226 60.7838C40.4628 60.6844 41.2252 60.7838 42.0096 61.0821C42.7996 61.386 43.5205 61.8638 44.1724 62.5157C45.2054 63.5487 45.7551 64.6177 45.8213 65.7225C45.8932 66.8219 45.4871 67.8356 44.6032 68.7636L40.4766 72.8903C39.6535 73.7134 39.1038 74.473 38.8276 75.169L38.695 75.3016L37.0875 73.694ZM35.7119 69.9817C36.1925 70.4623 36.7726 70.7938 37.4521 70.9761C38.1316 71.1584 38.7669 71.1474 39.3579 70.943L41.1975 69.1034L39.996 67.9018C38.1177 66.0236 36.629 65.6341 35.5296 66.7335C35.049 67.2141 34.8336 67.7499 34.8833 68.341C34.933 68.9321 35.2092 69.479 35.7119 69.9817Z" fill="white"/>
</svg>
